<?xml version="1.0" encoding="UTF-8"?>
<!DOCTYPE svg PUBLIC "-//W3C//DTD SVG 1.1//EN" "http://www.w3.org/Graphics/SVG/1.1/DTD/svg11.dtd">
<!-- Creator: CorelDRAW -->
<svg xmlns="http://www.w3.org/2000/svg" xml:space="preserve" width="100mm" height="100mm" style="shape-rendering:geometricPrecision; text-rendering:geometricPrecision; image-rendering:optimizeQuality; fill-rule:evenodd; clip-rule:evenodd"
viewBox="0 0 100 100"
 xmlns:xlink="http://www.w3.org/1999/xlink">
 <defs>
  <style type="text/css">
   <![CDATA[
    .str0 {stroke:black;stroke-width:0.5}
    .fil0 {fill:black}
    .fil1 {fill:white}
    .fil2 {fill:black;fill-rule:nonzero}
   ]]>
  </style>
 </defs>
 <g id="Capa_x0020_1">
  <metadata id="CorelCorpID_0Corel-Layer"/>
  <g id="_303085976">
   <path id="_98087056" class="fil0" d="M21.1522 27.8368c0.3383,0.3448 3.983,1.3167 4.7262,1.3399l0 0.0461 4.6389 0.7358 0.0842 -0.0269 -0.5898 -4.3096 -0.3388 -1.1012c-0.0451,-0.5421 -0.4202,-1.8039 -0.7623,-2.033 0,-1.3382 -1.7048,-3.349 -1.7882,-4.2223l4.922 3.5446 1.0163 0.6777 4.3195 2.5412 1.4398 0.7624c0.2121,0.1843 3.1724,1.5247 3.4726,1.5247 0.2175,0 1.394,-0.991 1.5245,-1.1859l1.1857 -1.1012 1.5246 -1.8636 1.0163 -1.5247 2.1174 -4.4048 0.5082 -1.44 1.7105 -5.6949 0.0847 0.0205 -0.1013 1.9473 -0.0361 2.2071 0.2902 1.7741 0.1694 1.0165 0.0847 0.0847 0.4234 1.3553 0.5929 1.4401 1.3551 2.1176 0.9317 1.186 1.7786 1.6941 1.5245 1.1859c0.0947,0.1293 1.5344,1.1012 1.6092,1.1012 0.0461,0 1.4353,-0.4617 1.5811,-0.5365 0.5133,-0.2635 0.9828,-0.4773 1.468,-0.7341l1.7786 -1.0165 3.8113 -2.6259 1.1858 -0.9318 1.948 -1.6095 1.2704 -1.1012 1.7786 -1.6941 1.1011 -1.1012 1.4256 -1.3565 -0.4592 5.6811 0.4734 4.6544 0.2541 1.0165 0.3388 1.2706 0.6775 1.8636 0.765 1.7171 0.9289 -0.1077 1.6939 -0.2541c0.4724,-0.2267 2.8998,-0.6674 3.6741,-0.8997 0.6886,-0.2065 3.0871,-0.9108 3.4404,-1.218l1.3551 -0.5083 1.1132 -0.4155 -1.8754 2.9568 -0.5082 1.2706 -0.2541 0.8471c-0.4093,1.8348 -0.7889,3.5655 -1.0257,5.1253 2.438,0.6836 5.4193,1.0056 8.8743,1.0113 -1.4821,1.474 -3.3657,3.7221 -5.1355,6.5462l0.1407 0.0176 2.1209 0.2542 0.9333 0.0847 2.121 0.0847 0.5938 0 0.6788 0c-0.4564,0.396 -3.8307,1.9436 -4.768,2.5243 -0.7666,0.4748 -3.8461,2.4653 -4.225,2.9817l-0.5769 0.4114 -0.3308 0.1952c-1.6122,4.1381 -2.58,8.8866 -2.0688,13.9263l0.5505 1.2283c0.5054,0.7548 0.9926,1.4831 1.524,2.2029 0.2193,0.2972 0.5687,0.7549 0.8257,1.0378 0.6018,0.6627 0.297,0.4081 1.0546,0.8934 0.5178,0.3317 0.3257,0.667 0.7659,1.0976 0.348,0.3403 0.6306,0.628 0.9752,0.973 0.6691,0.6698 1.4425,1.0631 1.9621,1.8323l-1.7717 0 0 -0.2439 -1.6939 -0.593 -0.8469 -0.2541 -4.565 -1.3025 -0.0929 2.3935 -0.1698 0 0 0.1546 -0.0847 1.8647 0.0847 0.678 0 0.2543c0,2.3613 1.2849,6.2233 2.1174,7.7977l0.4235 0.8476 0.5679 1.2212 -6.0731 -4.2725 -1.1858 -0.7628 -2.4562 -1.5257 -0.6775 -0.4237 -1.1858 -0.5933 -0.0847 -0.0848 -1.1857 -0.5933 -2.1174 -1.0171 -1.4398 -0.6781 -0.9317 -0.339 -1.8633 -0.6781 -0.6281 -0.1979 -0.3882 0.537 -1.0164 1.4409 -0.5082 0.9323 -0.5081 1.0171 -1.0164 2.3732 -0.5082 1.3561 -0.3387 1.1019 -0.4235 1.6951 -0.3388 1.6952 0 0.0847 -0.2541 1.1866 -0.7623 0 0.0608 -0.2622 -0.4842 -3.0433 -0.2541 -1.1866 -0.0847 -0.0848 -0.3388 -1.1018 -0.847 -1.6952 -1.1857 -1.8646 -1.2704 -1.4409 -1.5246 -1.3561 -1.7786 -1.2714 -1.7786 -1.0171 -0.1686 -0.0807 -0.5089 0.0807 -2.7103 0.7628 -0.5082 0.0848 -0.0847 0.0847 -1.2704 0.4238 -1.8633 0.6781 -1.6092 0.678 -0.0847 0.0848 -2.5409 1.2714 -1.5245 0.7628 -4.2348 2.6275 -1.0164 0.678 -2.7102 1.9495 -0.2541 0.1695 -2.6532 1.9435 0.2817 -1.3502 0.0847 -0.5933 0.5082 -4.5769 0.0323 -1.274 -0.2017 -2.2011 -0.1694 -0.9323 -0.0847 -0.0848 -1.0164 0.5933 -1.6132 0.8456 1.5285 -3.3883 0 -0.4831c0.0348,-0.052 0.3388,-0.496 0.3388,-0.5083 0,-0.7927 -1.9576,-4.0709 -2.4562,-4.4048l0 -0.1694 -0.7622 -0.7624 -0.2372 -0.2372 -2.0266 -1.8004 -0.5087 -0.4235c-0.5704,-0.4954 -4.107,-2.5584 -4.9173,-2.6258l-0.6782 -0.3388 -3.8918 -1.1903 0 0.0085c-3.3409,-0.7778 -6.9674,-1.2688 -11.0894,-1.2688l-0.5087 0 -0.7615 0.095 -0.0965 -0.7723c1.0841,-0.0254 5.3428,-1.5904 6.5053,-1.986 1.1049,-0.3761 2.0038,-0.7631 3.0512,-1.1888 0.6416,-0.2607 1.948,-0.9687 2.6456,-1.2355l0 -0.0051 1.6871 -0.9271 0.3391 -0.1694c0.7548,-0.5049 1.5382,-0.9016 2.2661,-1.4629 0.6845,-0.528 1.4857,-1.2316 2.1426,-1.6711 2.3958,-1.6986 3.9887,-4.2497 4.4086,-8.0468l0.0848 -1.1858 -0.1696 -1.7788 -0.3391 -1.3553c-0.3824,-1.6397 -1.4656,-3.6841 -2.2891,-4.9128l-0.5087 -0.6776c-0.1523,-0.5698 -1.8148,-2.3636 -2.2673,-2.9017 -0.497,-0.591 -1.7138,-1.7105 -2.2649,-2.3349l-0.0473 0 -3.04 -2.8716 7.4279 2.6176 0.3742 0zm69.6749 17.7205c-3.5017,5.633 -5.7241,12.0111 -4.9162,19.962 0.246,1.056 1.9416,3.1708 2.5409,4.0659l1.8875 1.8378 -0.363 -0.0589 1.9139 2.0655 -0.0365 0.0663c-1.3758,-0.9605 -9.1369,-2.4706 -11.8715,-2.4706l-0.7623 0c-2.2319,0 -4.2485,0.4545 -5.844,1.1012 -1.0399,0.4214 -3.1109,1.5738 -3.9347,2.4464l-0.0563 0c-0.2886,0.422 -0.7689,0.7445 -1.1246,1.2223 -0.3374,0.4534 -0.6905,0.8675 -1.0442,1.3282 -0.6536,0.8512 -1.1818,1.9588 -1.6883,2.9721 -0.5731,1.1465 -2.2834,5.5691 -2.3154,7.0063 -0.2696,-0.1976 -0.5331,-1.8138 -0.6666,-2.2146 -0.2204,-0.6618 -0.5266,-1.4369 -0.8281,-2.0531 -0.5447,-1.1133 -1.512,-2.5996 -2.2941,-3.4677 -0.9212,-1.0223 -1.8915,-1.9186 -3.0206,-2.7407 -0.5898,-0.4294 -1.1448,-0.7327 -1.7617,-1.1188 -0.4698,-0.2941 -1.0722,-0.5063 -1.5568,-0.7719 -0.0741,-0.0511 -0.1601,-0.1027 -0.2564,-0.1545l-0.0115 -0.0076 -0.0027 0c-1.6463,-0.8782 -6.308,-1.8535 -8.4039,-1.8535l-2.2868 0c-2.2645,0 -7.3413,0.9883 -9.2532,1.8535l-0.0967 0 -3.7238 1.6974 -0.0683 -0.0033 0.5827 -1.4401 0.0267 0 0.0356 -0.1539 0.0405 -0.1001 -0.0174 0c0.4159,-1.7969 0.709,-3.2623 0.2987,-5.3475 -0.181,-0.9195 -0.4426,-1.6687 -0.8118,-2.407 -0.2289,-0.4576 -1.2074,-1.8474 -1.2419,-1.9768 -1.7212,-2.5441 -3.8112,-3.796 -6.9247,-3.9009 -0.7126,-0.0159 -2.0331,-0.3271 -2.9604,-0.4304 -1.0771,-0.12 -2.0721,-0.1625 -3.3134,-0.1625 0.9017,-0.783 2.0624,-1.457 2.9481,-2.3063 0.5963,-0.5718 2.2164,-2.2614 2.7322,-2.6065 3.3804,-3.2825 6.2976,-7.1437 8.1958,-12.2785 0.1464,-0.6285 0.7578,-1.8924 1.0055,-2.6367 0.309,-0.9283 0.6018,-1.8387 0.8408,-2.8015 0.4498,-1.8112 0.8639,-4.1296 0.8639,-6.3361l0 -1.1012c0,-3.2178 -1.0164,-7.4063 -2.1174,-9.4873 0.0838,0.0224 4.6221,3.0944 5.3015,3.5074 1.7083,1.0385 3.8591,2.2753 5.7822,3.0266 4.538,1.7727 8.423,3.1013 14.746,2.3578 4.7193,-0.5549 9.2617,-3.0087 12.4698,-5.1477 1.6203,-1.0804 3.6204,-2.5037 5.0007,-3.8081 0.7642,-0.7222 1.5773,-1.3218 2.3298,-2.0747 0.4199,-0.4201 1.849,-1.8461 2.2231,-2.0966l-0.2009 2.539 0.0315 2.0352c0,4.0723 1.0963,7.2368 2.5132,9.9385 0.7132,1.36 1.6389,2.4734 2.6743,3.5089 0.6219,0.6219 2.695,2.451 3.5362,2.647 0.6446,0.3788 1.3299,0.7115 2.058,0.9961l0.7658 0.2761c1.9808,0.6566 4.2598,0.9784 6.8748,0.9218 -1.4427,1.7728 -2.8134,3.5961 -4.0425,5.5027l-0.4011 0.6336zm-1.359 4.8264c0.979,-0.6761 1.9254,-1.4778 2.9888,-2.1848 0.4477,-0.2977 3.2634,-1.8631 3.3432,-2.0833l-0.3393 0 -3.5668 -0.4298c-0.8661,1.4362 -1.6955,3.0102 -2.4259,4.6979zm-1.7058 -13.092c0.2172,-1.3747 0.5583,-2.9656 1.0282,-4.8083 0.094,-1.1295 0.9957,-2.7181 1.4399,-3.5577 -0.5573,0.0463 -3.5657,1.2121 -4.6242,1.4741 -1.2095,0.2994 -3.829,0.9824 -5.1158,0.9824 0.2998,1.123 4.1161,4.7793 5.2511,5.0824 0.6181,0.3129 1.2923,0.5881 2.0208,0.8271zm-17.4504 37.5352l-1.0861 1.0869c1.4679,0.1223 7.9785,3.3067 9.2147,4.0855 1.3593,0.8563 7.489,4.4644 8.0774,5.3368l0.0705 -0.0989c0.0168,-0.0168 -0.7004,-1.6443 -0.7742,-1.8527 -0.2229,-0.6291 -0.4062,-1.3477 -0.5809,-2.0462 -0.3416,-1.3657 -0.5929,-3.0465 -0.5929,-4.7464l0 -1.4409c0,-0.2866 0.0601,-0.3266 0.0832,-0.5781l0.0252 0 0.205 -2.2798 -4.4542 -0.5787 -1.7032 0.0732c-1.7912,0 -3.5255,0.4545 -4.8396,0.9198 -0.8939,0.3164 -3.0938,1.4784 -3.538,2.1195l-0.1069 0zm-35.8256 0l-3.8818 1.5107c0.0908,1.0919 0.6017,3.5651 0.4055,4.8132 -0.1143,0.7273 -0.051,1.6738 -0.1695,2.4579 -0.0835,0.5533 -0.3206,1.8639 -0.3206,2.3913 0.6843,-0.3624 1.5934,-1.2076 2.3034,-1.6785 0.8013,-0.5316 1.5528,-1.092 2.3548,-1.6271 1.6564,-1.105 3.2786,-1.994 4.98,-3.0684 1.6703,-1.0547 9.2385,-4.5085 11.5357,-4.5598l-0.0132 -0.1329 -0.2602 -0.1064 -0.2476 0c-0.8966,-0.7452 -6.0021,-1.4298 -7.9486,-1.4298 -2.063,0 -7.4694,0.7157 -8.5386,1.4298l-0.1993 0zm-8.6079 -44.9275l0 0.0379c-1.2675,-0.2951 -5.2103,-1.2277 -6.8029,-1.8465l-0.0774 0 -2.1902 -0.7904 -0.0822 0.0224 0.5127 0.514 0.0957 0c0.279,0.4059 0.9703,1.0141 1.3682,1.4878 0.4393,0.5229 0.8928,0.9638 1.3579,1.5232 0.8397,1.0098 1.7338,2.1892 2.4077,3.3544 1.6423,2.8391 2.4864,4.6728 2.4864,9.1202 -0.5534,4.5636 -2.7892,7.3166 -5.0869,8.8092 -0.672,1.0026 -4.6365,3.222 -6.2656,4.095l0 0.0582c-0.4625,0.1162 -1.7074,0.7476 -2.2158,0.9854 -0.7465,0.3492 -1.5982,0.6832 -2.3573,0.95 -0.5948,0.209 -4.7158,1.5768 -4.9055,1.7087 1.7346,0 3.5431,0.2344 5.0949,0.4162 0.8903,0.1043 1.578,0.2236 2.4303,0.3678 1.1562,0.1957 0.9964,0.0506 1.6994,-0.376l0 -0.0764c0.5076,-0.1506 3.1764,-2.2492 3.6596,-2.6855 0.4922,-0.4444 1.2063,-1.2086 1.6731,-1.5471 0.625,-0.4532 0.9943,-1.1969 1.6108,-1.6094 3.1421,-2.973 5.6481,-6.7552 7.5183,-11.3467 0.0293,-0.3522 0.7991,-2.0144 0.9851,-2.5725 0.3013,-0.9042 0.5724,-1.709 0.8104,-2.6624 0.4376,-1.7529 0.9148,-3.9133 0.9148,-6.1159l0 -1.1012 -4.6415 -0.7204zm0 37.4714c0.6013,0.4132 1.3735,1.5162 1.8115,2.1647 0.6129,0.9074 1.0997,1.9766 1.6442,2.7604l0.1035 -0.7596 -0.0188 -0.2569c0,-3.1766 -1.1411,-4.346 -2.3715,-6.1837 -1.3274,-2.0767 -3.3651,-3.0957 -5.9929,-3.308 -2.527,-0.5882 -4.2233,-0.6776 -7.376,-0.6776 0.1642,0.1041 3.4753,1.0679 3.9954,1.2599 1.0907,0.4028 2.6811,1.0386 3.5501,1.62 0.3674,0.1976 0.7348,0.3952 1.1022,0.5929l0.5935 0.4236 0.5934 0.3388 2.3654 2.0255zm17.3458 -39.7158c1.5989,0.7673 5.8543,1.5248 8.3002,1.5248l0.3388 0c1.8305,0 7.3892,-0.8284 7.9614,-1.6095 -1.401,-0.3741 -4.6612,-3.6663 -5.567,-4.8512 -1.1475,-1.5012 -2.9873,-4.8821 -2.9873,-7.4314l-0.1694 0c-0.1161,1.396 -2.3895,5.8557 -3.0834,6.9964 -0.6186,1.0169 -1.3746,2.0818 -2.1453,2.9369 -0.3995,0.4433 -0.8449,0.8377 -1.2715,1.2694 -0.33,0.3339 -1.1886,0.9081 -1.3765,1.1646z"/>
   <path id="_303086336" class="fil1 str0" d="M90.3393 71.423c-7.1063,-5.0405 -8.0167,-21.3208 3.5721,-32.0073 -4.3897,2.4984 -10.7034,-1.4235 -10.9938,-1.5669 -0.6599,-0.3259 -1.3297,-0.8078 -1.8959,-1.238 -1.1778,-0.8949 -2.2656,-2.0076 -3.1073,-3.2453 -1.5553,-2.2872 -2.9293,-5.895 -2.9293,-9.6917l0 -2.4565 0.1753 -2.5408c-0.1585,0.0403 -4.0305,3.8274 -4.6424,4.3414 -1.7187,1.4441 -3.1174,2.6635 -5.0357,3.9425 -3.2176,2.1454 -7.9767,4.5912 -13.2803,4.5912l-0.7623 0c-4.2285,0 -8.7603,-1.7058 -11.6033,-3.1342 -1.5732,-0.7904 -3.2516,-1.7087 -4.6921,-2.6768 -0.5397,-0.3628 -4.1794,-2.8694 -4.3399,-2.9007 5.3417,9.7591 3.2209,24.2829 -12.8699,37.3371 11.4894,-0.888 17.9839,5.6656 13.5126,14.6353l0.1819 0.0146c0.4846,-0.6196 4.528,-2.3013 5.6176,-2.6646 1.8508,-0.6172 4.6959,-1.3065 7.0787,-1.3065l1.948 0c2.1761,0 4.7818,0.6101 6.386,1.2368 1.2143,0.4744 4.2505,1.9101 4.8706,2.7343l0.0587 0c2.7219,2.436 5.3697,5.781 5.3697,10.8341 0.0507,-0.08 1.2453,-5.2223 1.4927,-5.9649 0.3452,-1.0361 0.6887,-1.7952 1.0368,-2.6919 0.2445,-0.6301 0.9018,-1.5992 1.1756,-2.1773l0.027 0c1.6155,-3.0425 5.7264,-5.9193 10.4121,-5.9193l1.6092 0c1.9331,0 4.356,0.4706 5.9796,0.8808 1.8598,0.47 3.6438,1.1933 5.285,1.5757 0.121,0.0196 0.242,0.0392 0.363,0.0589z"/>
   <path id="_145070176" class="fil1" d="M90.3393 71.423c-7.1063,-5.0405 -8.0167,-21.3208 3.5721,-32.0073 -4.3897,2.4984 -10.7034,-1.4235 -10.9938,-1.5669 -0.6599,-0.3259 -1.3297,-0.8078 -1.8959,-1.238 -1.1778,-0.8949 -2.2656,-2.0076 -3.1073,-3.2453 -1.5553,-2.2872 -2.9293,-5.895 -2.9293,-9.6917l0 -2.4565 0.1753 -2.5408c-0.1585,0.0403 -4.0305,3.8274 -4.6424,4.3414 -1.7187,1.4441 -3.1174,2.6635 -5.0357,3.9425 -3.2176,2.1454 -7.9767,4.5912 -13.2803,4.5912l-0.7623 0c-4.2285,0 -8.7603,-1.7058 -11.6033,-3.1342 -1.5732,-0.7904 -3.2516,-1.7087 -4.6921,-2.6768 -0.5397,-0.3628 -4.1794,-2.8694 -4.3399,-2.9007 5.3417,9.7591 3.2209,24.2829 -12.8699,37.3371 11.4894,-0.888 17.9839,5.6656 13.5126,14.6353l0.1819 0.0146c0.4846,-0.6196 4.528,-2.3013 5.6176,-2.6646 1.8508,-0.6172 4.6959,-1.3065 7.0787,-1.3065l1.948 0c2.1761,0 4.7818,0.6101 6.386,1.2368 1.2143,0.4744 4.2505,1.9101 4.8706,2.7343l0.0587 0c2.7219,2.436 5.3697,5.781 5.3697,10.8341 0.0507,-0.08 1.2453,-5.2223 1.4927,-5.9649 0.3452,-1.0361 0.6887,-1.7952 1.0368,-2.6919 0.2445,-0.6301 0.9018,-1.5992 1.1756,-2.1773l0.027 0c1.6155,-3.0425 5.7264,-5.9193 10.4121,-5.9193l1.6092 0c1.9331,0 4.356,0.4706 5.9796,0.8808 1.8598,0.47 3.6438,1.1933 5.285,1.5757 0.121,0.0196 0.242,0.0392 0.363,0.0589z"/>
  </g>
  <polygon class="fil0" points="39.727,25.9872 52.5812,25.9872 56.989,54.851 61.3968,25.9872 74.251,25.9872 74.251,81.1893 64.1702,81.1893 64.1702,54.851 59.9708,81.1893 56.989,81.1893 54.0072,81.1893 49.8078,54.851 49.8078,81.1893 39.727,81.1893 "/>
  <polygon class="fil1 str0" points="37.2581,23.5183 50.1122,23.5183 54.5201,52.3821 58.9279,23.5183 71.7821,23.5183 71.7821,78.7204 61.7013,78.7204 61.7013,52.3821 57.5019,78.7204 54.5201,78.7204 51.5383,78.7204 47.3389,52.3821 47.3389,78.7204 37.2581,78.7204 "/>
  <path class="fil2" d="M77.3487 76.2858c-0.0908,-0.1178 -0.1664,-0.2491 -0.2192,-0.3882 -0.0806,-0.2124 -0.1103,-0.4369 -0.0858,-0.663 0.0244,-0.224 0.1037,-0.4421 0.223,-0.6329 0.0041,-0.0067 0.0083,-0.0133 0.0126,-0.0198 0.0575,0.0232 0.1149,0.0468 0.1723,0.0705 0.4486,0.1851 0.8956,0.3752 1.3471,0.5532 0.0295,0.0117 0.0592,0.0231 0.089,0.0339 0.009,0.0032 0.0181,0.0064 0.0271,0.0094 0.0058,0.0019 0.0117,0.0038 0.0176,0.0053 0.0031,0.0007 0.0064,0.0016 0.0095,0.0017 0.0008,0.0001 0.0031,0.0001 0.0032,-0.001 0.0003,-0.0022 -0.005,-0.0065 -0.0066,-0.0078 -0.0047,-0.0041 -0.0198,-0.0144 -0.021,-0.0203 -0.0008,-0.0036 0.0093,-0.002 0.0106,-0.0018 0.014,0.002 0.0281,0.0066 0.0415,0.0107 0.0687,0.0212 0.1373,0.0429 0.2055,0.0653 -0.1748,0.2686 -0.3558,0.5346 -0.5175,0.8109 -0.0739,0.1263 -0.1482,0.2537 -0.2166,0.3831 -0.0055,0.0105 -0.0109,0.0211 -0.0159,0.0319 -0.0013,0.0029 -0.0026,0.0059 -0.0036,0.0089 -0.0005,0.0014 -0.0013,0.0033 -0.0013,0.0048 0.0001,0.0028 0.0033,-0.0002 0.004,-0.0009 0.0038,-0.0035 0.0073,-0.0078 0.0106,-0.0118 0.0087,-0.0108 0.0172,-0.0218 0.0256,-0.0328 -0.0804,0.1493 -0.1608,0.2986 -0.2413,0.4479 -0.0063,0.0054 -0.0144,0.0105 -0.015,0.0014 -0.0003,-0.0034 0.0007,-0.0074 0.0014,-0.0108 0.0003,-0.0012 0.0006,-0.0025 0.0008,-0.0037 0,-0.0002 0.0001,-0.0006 -0.0001,-0.0008 0,-0.0001 -0.0003,0.0001 -0.0004,0.0002 -0.0001,0.0001 -0.0003,0.0003 -0.0004,0.0005 -0.0002,0.0002 -0.0004,0.0006 -0.0005,0.0008 -0.0006,0.0009 -0.0011,0.0018 -0.0016,0.0028 -0.0019,0.0033 -0.0037,0.0068 -0.0056,0.0102 -0.0079,0.0151 -0.0157,0.0302 -0.0236,0.0454 -0.0247,0.0474 -0.0496,0.0947 -0.0746,0.1419 -0.01,-0.0031 -0.0199,-0.0062 -0.0299,-0.0093 -0.0551,-0.0168 -0.1103,-0.0324 -0.1659,-0.0474 -0.0596,-0.0161 -0.1166,-0.0384 -0.1757,-0.0552 -0.058,-0.0199 -0.1236,-0.0422 -0.1252,-0.0414 -0.0033,0.0016 -0.0066,0.0033 -0.0099,0.0051 -0.0164,-0.0031 -0.032,-0.0029 -0.0403,0.0149 -0.0005,0.001 -0.001,0.002 -0.0015,0.003 -0.0088,-0.0028 -0.0176,-0.0054 -0.0265,-0.0077 -0.0167,-0.0042 -0.0339,-0.007 -0.0429,0.011 -0.0122,0.0247 -0.0263,0.0325 -0.0501,0.0443 -0.006,0.0001 -0.012,0.0001 -0.018,0.0001 -0.027,-0.0054 -0.0534,-0.0109 -0.0719,-0.0048 -0.0266,-0.0057 -0.0513,-0.0091 -0.0647,0.0047 -0.0298,0.0304 0.0319,0.1118 0.0486,0.1387 0.0265,0.0428 0.0514,0.0744 0.0886,0.1099 0.1272,0.1214 0.2784,0.2202 0.4329,0.3059 -0.0744,0.1397 -0.1474,0.2801 -0.2167,0.4224 -0.0233,0.0478 -0.0457,0.0965 -0.0657,0.1459 -0.0122,0.03 -0.0259,0.0631 -0.0309,0.0953 -0.0017,0.0109 -0.004,0.0335 0.0137,0.0303 0.0182,-0.0033 0.0408,-0.0235 0.0572,-0.039 -0.0023,0.0142 -0.0047,0.0283 -0.0071,0.0425 -0.0135,0.0254 -0.0275,0.0507 -0.0409,0.0762 -0.0099,0.0188 -0.0196,0.0378 -0.0287,0.0572 -0.0072,0.0154 -0.0143,0.0313 -0.0194,0.0476 -0.0022,0.0072 -0.0066,0.0211 -0.0028,0.0283 0.0041,0.0078 0.016,0.0019 0.0213,-0.0008 0.028,-0.0137 0.0559,-0.0155 0.0815,-0.0271 0.0128,-0.0059 0.0241,-0.0196 0.0327,-0.0303 0.0223,-0.0276 0.042,-0.058 0.0616,-0.0875 0.011,-0.0166 0.0218,-0.0332 0.0322,-0.0501 0.0062,-0.0102 0.0123,-0.0204 0.0178,-0.0309 0.0093,-0.0179 0.0173,-0.0364 0.0263,-0.0544 0.0217,-0.0435 0.0462,-0.0859 0.0707,-0.1278 0.0592,-0.1016 0.121,-0.2018 0.1831,-0.3016 0.0164,-0.0264 0.0329,-0.0529 0.0494,-0.0793 0.0515,0.0218 0.1039,0.0415 0.1563,0.059 0.0931,0.031 0.1883,0.0556 0.2851,0.0713 0.0068,0.0011 0.0136,0.0022 0.0203,0.0032 0.2734,0.0668 0.551,0.0929 0.8385,0.0937 0.0327,0.0001 0.0665,-0.0006 0.099,-0.0026 0.891,-0.0533 1.6741,-0.3166 2.3737,-0.8828 0.1852,-0.1499 0.3576,-0.3307 0.502,-0.5262 0.0768,0.0296 0.1539,0.0591 0.2321,0.085 0.0103,0.0034 0.0208,0.0067 0.0314,0.0094 0.0049,0.0013 0.0113,0.0033 0.0164,0.003 0.0038,-0.0001 0.0015,-0.0026 -0.0001,-0.004 -0.0052,-0.0046 -0.0121,-0.0083 -0.018,-0.0117 -0.0375,-0.0212 -0.076,-0.0405 -0.1146,-0.0596 0.0422,0.0065 0.0845,0.0131 0.1267,0.0196 0.0765,0.027 0.1528,0.0546 0.2292,0.0821 0.3357,0.1205 0.6721,0.2448 1.012,0.3534 -0.0419,-0.0281 -0.0836,-0.0577 -0.1264,-0.0841 -0.0229,-0.014 -0.0457,-0.0303 -0.0679,-0.0474 -0.0052,-0.0472 -0.0104,-0.0944 -0.0156,-0.1416 0.0389,0.0091 0.0773,0.0199 0.1158,0.0306 0.0166,0.0046 0.0332,0.0092 0.05,0.0134 0.0052,0.0014 0.0106,0.0027 0.016,0.0036 0.0023,0.0004 0.006,0.0013 0.0083,0.0007 0.002,-0.0005 -0.0004,-0.0024 -0.001,-0.0029 -0.0035,-0.0028 -0.0079,-0.005 -0.0118,-0.0071 -0.0199,-0.0106 -0.0406,-0.02 -0.0611,-0.0294 -0.2072,-0.0943 -0.4153,-0.1864 -0.628,-0.2674 -0.0947,-0.0361 -0.1896,-0.0716 -0.2846,-0.1065 -0.0405,-0.0149 -0.081,-0.0304 -0.1221,-0.0434 -0.0032,-0.001 -0.0064,-0.002 -0.0096,-0.0026 -0.0007,-0.0002 -0.0015,-0.0003 -0.0021,-0.0003 -0.0002,0 -0.0006,0.0001 -0.0003,0.0004 0.0007,0.0011 0.0029,0.0021 0.0041,0.0028 0.0033,0.0018 0.0067,0.0034 0.0101,0.0051 0.0291,0.0138 0.0589,0.0266 0.0885,0.0394 0.0944,0.0411 0.1891,0.0815 0.2832,0.1233 0.0397,0.0177 0.0795,0.0356 0.1186,0.0548 0.0123,0.006 0.0248,0.0123 0.0368,0.0193 0.0032,0.0018 0.0114,0.0062 0.0145,0.01 -0.2579,-0.095 -0.5158,-0.19 -0.7738,-0.285 0.0359,-0.0612 0.0698,-0.1245 0.1001,-0.1881 0.1607,-0.3382 0.2564,-0.6927 0.2603,-1.0689 0.0038,-0.3651 -0.0803,-0.7054 -0.2428,-1.0309 -0.0109,-0.0218 -0.0229,-0.0452 -0.0359,-0.0659 -0.1882,-0.3012 -0.4116,-0.5553 -0.7208,-0.735 0.0983,0.1041 0.1883,0.2161 0.2673,0.3354 0.1315,0.1643 0.2419,0.348 0.3204,0.5434 0.1207,0.3004 0.1692,0.6194 0.141,0.9421 -0.0281,0.3227 -0.1355,0.6385 -0.3007,0.9165 -0.0434,0.0731 -0.0912,0.1448 -0.1427,0.2143 -0.1545,-0.0657 -0.3087,-0.1318 -0.4631,-0.1977 -0.0894,-0.0381 -0.1789,-0.0763 -0.2686,-0.1136 -0.0538,-0.0224 -0.1078,-0.0453 -0.1625,-0.0651 -0.011,-0.004 -0.0222,-0.0077 -0.0334,-0.011 -0.0071,-0.002 -0.0144,-0.004 -0.0216,-0.005 -0.0049,-0.0007 -0.0149,-0.0021 -0.0185,0.0025 -0.0057,0.0072 -0.0008,0.0148 -0.0114,0.0181 -0.0531,-0.014 -0.1062,-0.028 -0.1594,-0.042 -0.0444,-0.0163 -0.0885,-0.0336 -0.1324,-0.0512 -0.0853,-0.0342 -0.1701,-0.0696 -0.2546,-0.1057 -0.3543,-0.1513 -0.7058,-0.3132 -1.0641,-0.4554 0.1109,-0.2112 0.2274,-0.4088 0.3549,-0.6126 0.1296,-0.2072 0.2576,-0.4156 0.3812,-0.6264 0.0062,-0.0107 0.0125,-0.0214 0.0187,-0.0321 0.0379,0.0078 0.0745,0.0186 0.1128,0.0241 0.04,0.0092 0.0821,0.0188 0.0831,0.0181 0.0029,-0.0019 0.0057,-0.0039 0.0085,-0.006 0.0154,0.0003 0.0259,-0.0042 0.034,-0.0193 0.0005,-0.001 0.0011,-0.0019 0.0016,-0.0029 0.0066,0.0012 0.0133,0.0023 0.0199,0.003 0.0163,0.0017 0.0274,-0.0011 0.0358,-0.0161 0.0126,-0.0224 0.0259,-0.0329 0.0467,-0.0468 0.0048,-0.0009 0.0096,-0.0018 0.0144,-0.0026 0.0211,0.0008 0.042,0.0019 0.058,-0.0061 0.0212,0.0012 0.0411,0.0007 0.054,-0.0132 0.0278,-0.03 -0.0074,-0.0875 -0.021,-0.1173 -0.0161,-0.0352 -0.0307,-0.0587 -0.0578,-0.0881 -0.0602,-0.0653 -0.1315,-0.1222 -0.2065,-0.1731 0.1392,-0.2528 0.2809,-0.5063 0.4093,-0.7647 -0.031,0.031 -0.0635,0.0615 -0.093,0.0937 -0.0157,0.0172 -0.0336,0.0339 -0.0522,0.0499 -0.0459,-0.0049 -0.0918,-0.0099 -0.1378,-0.0149 0.0125,-0.0321 0.0266,-0.0637 0.0405,-0.0952 0.006,-0.0136 0.0121,-0.0273 0.0177,-0.0411 0.0018,-0.0043 0.0036,-0.0088 0.005,-0.0133 0.0006,-0.0018 0.0018,-0.0051 0.0014,-0.0071 -0.0003,-0.0018 -0.0022,-0.0002 -0.0028,0.0003 -0.003,0.0025 -0.0056,0.0059 -0.008,0.0089 -0.0121,0.0152 -0.0232,0.0315 -0.0341,0.0476 -0.1106,0.1623 -0.219,0.3259 -0.3175,0.496 -0.02,0.0346 -0.04,0.0693 -0.0598,0.1041 -0.0489,-0.0238 -0.0996,-0.0447 -0.1505,-0.0623 -0.0674,-0.0233 -0.1367,-0.0412 -0.2074,-0.0513 -0.0043,-0.0006 -0.0087,-0.0011 -0.013,-0.0017 -0.1982,-0.0515 -0.4001,-0.0711 -0.6097,-0.0714 -0.0236,0 -0.0481,0.0006 -0.0718,0.002 -0.6462,0.0399 -1.2138,0.2314 -1.7205,0.6435 -0.1734,0.1411 -0.333,0.3209 -0.4501,0.5128 -0.0424,-0.0126 -0.0851,-0.0246 -0.128,-0.0352 -0.0364,-0.0091 -0.0759,-0.0192 -0.1136,-0.0208 -0.0105,-0.0004 -0.0386,-0.001 -0.0307,0.0173 0.0083,0.0188 0.0359,0.0391 0.0569,0.0537 -0.0164,-0.0008 -0.0327,-0.0016 -0.049,-0.0025 -0.0316,-0.0109 -0.0631,-0.0223 -0.0947,-0.0331 -0.0233,-0.008 -0.0468,-0.0157 -0.0706,-0.0228 -0.0189,-0.0056 -0.0382,-0.0111 -0.0577,-0.0145 -0.0081,-0.0014 -0.0249,-0.0044 -0.0323,0.0003 -0.0079,0.0052 0.0023,0.0172 0.0059,0.0216 0.0213,0.0262 0.0307,0.0554 0.0494,0.0797 0.0098,0.0128 0.0276,0.0224 0.0414,0.0299 0.0362,0.0196 0.0745,0.0362 0.1121,0.0528 0.0211,0.0093 0.0423,0.0185 0.0635,0.0272 0.0128,0.0052 0.0257,0.0102 0.0387,0.0146 0.0221,0.0075 0.0447,0.0136 0.0668,0.0207 0.012,0.0038 0.0238,0.0078 0.0357,0.0119 -0.1107,0.2444 -0.1756,0.4997 -0.1754,0.7697 0.0001,0.2671 0.0644,0.5156 0.1875,0.7516 0.0082,0.0158 0.0173,0.0328 0.027,0.0476 0.1404,0.2138 0.3088,0.3969 0.5399,0.5129 -0.0665,-0.0781 -0.1267,-0.1617 -0.1787,-0.2501zm1.0455 0.9354c0.1014,-0.1627 0.2019,-0.3258 0.3001,-0.4902 0.014,-0.0236 0.0279,-0.0473 0.0411,-0.0712 0.004,-0.0072 0.0079,-0.0145 0.0116,-0.0218 0.0024,-0.0047 0.0048,-0.0095 0.0068,-0.0143 0.001,-0.0026 0.0022,-0.0054 0.0026,-0.008 0.0001,-0.0008 0.0003,-0.0027 -0.0007,-0.003 -0.0021,-0.0007 -0.0066,0.003 -0.0082,0.0042 -0.0045,0.0035 -0.0158,0.0144 -0.0215,0.0143 -0.0035,-0.0001 -0.0012,-0.0082 -0.0008,-0.0097 0.0033,-0.0117 0.0091,-0.0233 0.0144,-0.0342 0.0383,-0.0795 0.0775,-0.1586 0.1185,-0.2367 0.0309,-0.0587 0.0628,-0.1169 0.0964,-0.1741 0.0259,-0.0439 0.0528,-0.0872 0.081,-0.1295 0.0233,-0.0349 0.0475,-0.0692 0.0724,-0.1029 0.0487,-0.0662 0.099,-0.1311 0.1461,-0.1984 0.0697,-0.0996 0.1326,-0.203 0.1932,-0.3083 0.0064,-0.0111 0.0127,-0.0224 0.019,-0.0337 0.0041,0.0016 0.0082,0.0032 0.0124,0.0048 0.055,0.0214 0.1096,0.0439 0.1635,0.0679 0.0445,0.0198 0.0884,0.0406 0.1319,0.0621 0.0853,0.0421 0.1696,0.086 0.2557,0.1264 0.1275,0.0597 0.2578,0.1122 0.3894,0.162 0.0271,0.0103 0.0544,0.0203 0.082,0.0295 0.0132,0.0043 0.0269,0.009 0.0407,0.0116 0.0033,0.0006 0.0107,0.0021 0.0138,-0.0003 0.0018,-0.0014 0.0014,-0.004 0.0015,-0.0059 0.0007,-0.0104 0.0185,-0.0062 0.0248,-0.0052 0.0175,0.0028 0.0352,0.008 0.0523,0.013 0.0331,0.0095 0.0658,0.0203 0.0985,0.0313 0.2804,0.0938 0.5464,0.1968 0.82,0.3104 0.1405,0.0584 0.2812,0.1161 0.4224,0.173 -0.1196,0.1294 -0.2519,0.247 -0.392,0.3473 -0.4413,0.316 -0.926,0.5184 -1.4618,0.6028 -0.2157,0.034 -0.4397,0.0509 -0.6581,0.0472 -0.3633,-0.0062 -0.7076,-0.0585 -1.0568,-0.1569 -0.0041,-0.0012 -0.0081,-0.0023 -0.0122,-0.0035zm-0.9599 -2.8452c0.1013,-0.1163 0.2178,-0.2208 0.3426,-0.3057 0.3085,-0.21 0.6461,-0.3423 1.0161,-0.3895 0.1482,-0.0189 0.3014,-0.0266 0.4507,-0.0211 0.2462,0.009 0.4788,0.048 0.7158,0.1136 0.0285,0.0079 0.0568,0.0165 0.0853,0.0245 -0.0161,0.0286 -0.0321,0.0572 -0.0481,0.0857 -0.0983,0.1544 -0.1975,0.3083 -0.2963,0.4624 -0.0452,0.0706 -0.0905,0.1413 -0.135,0.2123 -0.0267,0.0426 -0.0539,0.0852 -0.0782,0.1292 -0.0049,0.0088 -0.0096,0.0179 -0.0137,0.027 -0.0027,0.0058 -0.0053,0.0118 -0.007,0.0179 -0.0012,0.0046 -0.0032,0.0127 0.0007,0.0167 0.0062,0.0063 0.0141,0.0037 0.0163,0.0136 -0.0185,0.0437 -0.0371,0.0874 -0.0557,0.1312 -0.0199,0.0356 -0.0408,0.0707 -0.0619,0.1055 -0.0092,0.0152 -0.0185,0.0305 -0.0278,0.0456 -0.1112,-0.0424 -0.2229,-0.0839 -0.3352,-0.1225 -0.0129,-0.0044 -0.0261,-0.0088 -0.0393,-0.0126 -0.0035,-0.001 -0.0072,-0.002 -0.0108,-0.0027 -0.0016,-0.0004 -0.0039,-0.0009 -0.0056,-0.0007 -0.0032,0.0003 0.0012,0.0033 0.0019,0.0039 0.0049,0.0035 0.0104,0.0066 0.0157,0.0094 0.0141,0.0077 0.0284,0.0151 0.0427,0.0225 -0.1856,-0.0652 -0.3711,-0.1303 -0.5567,-0.1955 -0.0075,-0.0058 -0.015,-0.0135 -0.0051,-0.0151 0.0039,-0.0007 0.0085,-0.0001 0.0124,0.0002 0.0014,0.0002 0.0029,0.0004 0.0043,0.0004 0.0003,0 0.0008,0 0.0009,-0.0001 0.0002,-0.0001 -0.0002,-0.0004 -0.0003,-0.0004 -0.0002,-0.0002 -0.0004,-0.0003 -0.0007,-0.0004 -0.0003,-0.0001 -0.0006,-0.0003 -0.001,-0.0005 -0.0011,-0.0004 -0.0023,-0.0009 -0.0034,-0.0013 -0.0042,-0.0015 -0.0085,-0.003 -0.0128,-0.0045 -0.0187,-0.0064 -0.0374,-0.0126 -0.0562,-0.019 -0.0963,-0.0325 -0.1925,-0.0655 -0.2886,-0.0989 -0.2219,-0.077 -0.4433,-0.156 -0.666,-0.2311zm2.8876 -1.0716c-0.0079,-0.0043 -0.0159,-0.0085 -0.024,-0.0126 0.0179,-0.0274 0.0358,-0.0547 0.0539,-0.0819 0.0209,-0.0313 0.0419,-0.0625 0.0641,-0.0928 0.007,-0.0096 0.0142,-0.0193 0.0221,-0.0283 0.0021,-0.0025 0.0072,-0.0087 0.011,-0.0107 -0.0424,0.0754 -0.0847,0.1509 -0.1271,0.2263z"/>
 </g>
</svg>
